  
  
  <svg  id="blob" viewBox="0 0 200 200" xmlns="http://www.w3.org/2000/svg">
  <defs>
  <pattern id="img1" patternUnits="userSpaceOnUse" width="100" height="100">
    <image href="/uploads/2022/02/18/photo.jpeg" x="0" y="0" width="100" height="100" />
  </pattern>
</defs>
    <path fill="url(#img1)" d="M44.9,-63.8C57,-53,64.8,-38.3,68.5,-23.2C72.1,-8,71.6,7.5,63.7,17.3C55.9,27,40.6,30.9,28.7,43.3C16.9,55.6,8.4,76.4,-4.8,83C-18,89.6,-36.1,82,-40.5,67.3C-44.9,52.5,-35.8,30.6,-41.4,13.4C-47.1,-3.8,-67.5,-16.2,-69.6,-26.6C-71.7,-37.1,-55.5,-45.6,-40.9,-55.5C-26.2,-65.5,-13.1,-76.9,1.7,-79.2C16.4,-81.4,32.8,-74.6,44.9,-63.8Z" transform="translate(100 100)" />
  </svg>