<svg id="visual" viewBox="0 0 900 300" width="900" height="300" xmlns="http://www.w3.org/2000/svg" xmlns:xlink="http://www.w3.org/1999/xlink" version="1.1"><path d="M0 130L100 214L200 148L300 124L400 40L500 73L600 91L700 34L800 160L900 160L900 0L800 0L700 0L600 0L500 0L400 0L300 0L200 0L100 0L0 0Z" fill="#ffcb3c"></path><path d="M0 181L100 238L200 172L300 205L400 76L500 97L600 118L700 139L800 193L900 226L900 158L800 158L700 32L600 89L500 71L400 38L300 122L200 146L100 212L0 128Z" fill="#ffdc82"></path><path d="M0 250L100 280L200 250L300 286L400 265L500 223L600 223L700 271L800 229L900 262L900 224L800 191L700 137L600 116L500 95L400 74L300 203L200 170L100 236L0 179Z" fill="#ffedc1"></path><path d="M0 301L100 301L200 301L300 301L400 301L500 301L600 301L700 301L800 301L900 301L900 260L800 227L700 269L600 221L500 221L400 263L300 284L200 248L100 278L0 248Z" fill="#ffffff"></path></svg>